<svg width="32" height="33" viewBox="0 0 32 33" fill="none" xmlns="http://www.w3.org/2000/svg">
<path d="M28.4003 17.2519H23.7603C22.4537 17.2519 21.2937 17.9719 20.707 19.1453L19.587 21.3586C19.3203 21.8919 18.787 22.2253 18.2003 22.2253H13.827C13.4137 22.2253 12.827 22.1319 12.4403 21.3586L11.3203 19.1586C11.0369 18.591 10.6012 18.1134 10.0621 17.7791C9.52288 17.4448 8.9014 17.2669 8.26699 17.2653H3.60033C3.08033 17.2653 2.66699 17.6786 2.66699 18.1986V22.5453C2.66699 27.3853 5.57366 30.2786 10.427 30.2786H21.6003C26.1737 30.2786 28.987 27.7719 29.3337 23.3186V18.1853C29.3337 17.6786 28.9203 17.2519 28.4003 17.2519ZM17.0003 3.61194C17.0003 3.06527 16.547 2.61194 16.0003 2.61194C15.4537 2.61194 15.0003 3.06527 15.0003 3.61194V6.2786H17.0003V3.61194Z" fill="#F6F6F6"/>
<path d="M29.3337 14.0254V15.412C29.0342 15.3051 28.7184 15.2509 28.4003 15.252H23.7603C21.6937 15.252 19.8403 16.3987 18.9203 18.2387L17.9203 20.212H14.107L13.107 18.252C12.6628 17.3484 11.9734 16.5878 11.1176 16.0574C10.2617 15.5269 9.27391 15.2478 8.26699 15.252H3.60033C3.28033 15.252 2.96033 15.3054 2.66699 15.412V14.0254C2.66699 9.17202 5.56033 6.27869 10.4137 6.27869H15.0003V10.532L14.0403 9.57202C13.8521 9.38605 13.5982 9.28175 13.3337 9.28175C13.0691 9.28175 12.8152 9.38605 12.627 9.57202C12.2403 9.95869 12.2403 10.5987 12.627 10.9854L15.2937 13.652C15.307 13.6654 15.3203 13.6654 15.3203 13.6787C15.5055 13.8498 15.7482 13.945 16.0003 13.9454C16.1337 13.9454 16.2537 13.9187 16.3737 13.8654C16.4937 13.8254 16.6137 13.7454 16.707 13.652L19.3737 10.9854C19.7603 10.5987 19.7603 9.95869 19.3737 9.57202C19.1855 9.38605 18.9316 9.28175 18.667 9.28175C18.4024 9.28175 18.1485 9.38605 17.9603 9.57202L17.0003 10.532V6.27869H21.587C26.4403 6.27869 29.3337 9.17202 29.3337 14.0254Z" fill="#F6F6F6"/>
</svg>
