<svg width="27" height="28" viewBox="0 0 27 28" fill="none" xmlns="http://www.w3.org/2000/svg">
<path d="M20.8267 12.6146C20.5544 12.6146 20.2932 12.5065 20.1007 12.3139C19.9082 12.1214 19.8 11.8603 19.8 11.588C19.8 11.0946 19.3067 10.068 18.48 9.17465C17.6667 8.30798 16.7733 7.80131 16.0267 7.80131C15.7544 7.80131 15.4932 7.69315 15.3007 7.50061C15.1082 7.30807 15 7.04693 15 6.77465C15 6.21465 15.4667 5.74798 16.0267 5.74798C17.36 5.74798 18.76 6.46798 19.9867 7.76131C21.1333 8.97465 21.8667 10.4813 21.8667 11.5746C21.8667 12.148 21.4 12.6146 20.8267 12.6146ZM25.64 12.612C25.3677 12.612 25.1066 12.5038 24.914 12.3113C24.7215 12.1187 24.6133 11.8576 24.6133 11.5853C24.6133 6.85198 20.76 3.01198 16.04 3.01198C15.7677 3.01198 15.5066 2.90381 15.314 2.71128C15.1215 2.51874 15.0133 2.2576 15.0133 1.98531C15.0133 1.42531 15.4667 0.945312 16.0267 0.945312C21.8933 0.945312 26.6667 5.71864 26.6667 11.5853C26.6667 12.1453 26.2 12.612 25.64 12.612ZM12.0667 18.212L9.6 20.6786C9.08 21.1986 8.25333 21.1986 7.72 20.692C7.57333 20.5453 7.42667 20.412 7.28 20.2653C5.93169 18.908 4.68813 17.4505 3.56 15.9053C2.46667 14.3853 1.58667 12.8653 0.946667 11.3586C0.32 9.83865 0 8.38531 0 6.99865C0 6.09198 0.16 5.22531 0.48 4.42531C0.8 3.61198 1.30667 2.86531 2.01333 2.19865C2.86667 1.35865 3.8 0.945312 4.78667 0.945312C5.16 0.945312 5.53333 1.02531 5.86667 1.18531C6.21333 1.34531 6.52 1.58531 6.76 1.93198L9.85333 6.29198C10.0933 6.62531 10.2667 6.93198 10.3867 7.22531C10.5067 7.50531 10.5733 7.78531 10.5733 8.03865C10.5733 8.35865 10.48 8.67865 10.2933 8.98531C10.12 9.29198 9.86667 9.61198 9.54667 9.93198L8.53333 10.9853C8.38667 11.132 8.32 11.3053 8.32 11.5186C8.32 11.6253 8.33333 11.7186 8.36 11.8253C8.4 11.932 8.44 12.012 8.46667 12.092C8.70667 12.532 9.12 13.1053 9.70667 13.7986C10.3067 14.492 10.9467 15.1986 11.64 15.9053C11.7733 16.0386 11.92 16.172 12.0533 16.3053C12.5867 16.8253 12.6 17.6786 12.0667 18.212ZM26.6267 22.7186C26.6249 23.2218 26.511 23.7183 26.2933 24.172C26.0667 24.652 25.7733 25.1053 25.3867 25.532C24.7333 26.252 24.0133 26.772 23.2 27.1053C23.1867 27.1053 23.1733 27.1186 23.16 27.1186C22.3733 27.4386 21.52 27.612 20.6 27.612C19.24 27.612 17.7867 27.292 16.2533 26.6386C14.72 25.9853 13.1867 25.1053 11.6667 23.9986C11.1467 23.612 10.6267 23.2253 10.1333 22.812L14.4933 18.452C14.8667 18.732 15.2 18.9453 15.48 19.092C15.5467 19.1186 15.6267 19.1586 15.72 19.1986C15.8267 19.2386 15.9333 19.252 16.0533 19.252C16.28 19.252 16.4533 19.172 16.6 19.0253L17.6133 18.0253C17.9467 17.692 18.2667 17.4386 18.5733 17.2786C18.88 17.092 19.1867 16.9986 19.52 16.9986C19.7733 16.9986 20.04 17.052 20.3333 17.172C20.6267 17.292 20.9333 17.4653 21.2667 17.692L25.68 20.8253C26.0267 21.0653 26.2667 21.3453 26.4133 21.6786C26.5467 22.012 26.6267 22.3453 26.6267 22.7186Z" fill="#F6F6F6"/>
</svg>
